<svg xmlns="http://www.w3.org/2000/svg" xmlns:xlink="http://www.w3.org/1999/xlink" width="500" zoomAndPan="magnify" viewBox="0 0 375 374.999991" height="500" preserveAspectRatio="xMidYMid meet" version="1.0"><defs><g/><clipPath id="022d2ddbc9"><path d="M 83.226562 90 L 211 90 L 211 217 L 83.226562 217 Z M 83.226562 90 " clip-rule="nonzero"/></clipPath><clipPath id="863667d39b"><path d="M 160 108 L 291.457031 108 L 291.457031 234.757812 L 160 234.757812 Z M 160 108 " clip-rule="nonzero"/></clipPath><clipPath id="09c30b81a2"><path d="M 160 108 L 265 108 L 265 234.757812 L 160 234.757812 Z M 160 108 " clip-rule="nonzero"/></clipPath><clipPath id="0c1393c891"><path d="M 153 78.257812 L 217 78.257812 L 217 220 L 153 220 Z M 153 78.257812 " clip-rule="nonzero"/></clipPath></defs><rect x="-37.5" width="450" fill="#ffffff" y="-37.499999" height="449.999989" fill-opacity="1"/><rect x="-37.5" width="450" fill="#ffffff" y="-37.499999" height="449.999989" fill-opacity="1"/><g clip-path="url(#022d2ddbc9)"><path fill="#db9453" d="M 210.09375 90.117188 L 101.613281 90.117188 C 91.679688 90.117188 83.542969 98.257812 83.542969 108.207031 L 83.542969 171.484375 C 83.542969 181.433594 91.679688 189.554688 101.613281 189.554688 L 110.65625 189.554688 L 110.65625 216.6875 L 146.816406 189.554688 L 164.90625 189.554688 " fill-opacity="1" fill-rule="nonzero"/><path fill="#db9453" d="M 210.09375 90.117188 L 101.613281 90.117188 C 91.679688 90.117188 83.542969 98.257812 83.542969 108.207031 L 83.542969 171.484375 C 83.542969 181.433594 91.679688 189.554688 101.613281 189.554688 L 110.65625 189.554688 L 110.65625 216.6875 L 146.816406 189.554688 L 164.90625 189.554688 " fill-opacity="1" fill-rule="nonzero"/></g><path fill="#ba7a3e" d="M 165.8125 189.554688 L 167.621094 189.554688 L 202.875 108.207031 L 210.09375 90.117188 L 189.308594 90.117188 L 154.054688 166.960938 C 153.148438 169.675781 150.433594 171.484375 147.722656 171.484375 C 145.007812 172.386719 143.199219 173.292969 141.390625 174.195312 L 110.65625 198.597656 L 110.65625 216.6875 L 146.816406 189.554688 L 165.8125 189.554688 " fill-opacity="1" fill-rule="nonzero"/><g clip-path="url(#863667d39b)"><path fill="#ece9e7" d="M 202.875 108.207031 L 273.367188 108.207031 C 283.316406 108.207031 291.457031 116.347656 291.457031 126.277344 L 291.457031 189.554688 C 291.457031 199.503906 283.316406 207.644531 273.367188 207.644531 L 264.34375 207.644531 L 264.34375 234.757812 L 228.183594 207.644531 L 164.90625 207.644531 C 163.097656 207.644531 161.289062 207.644531 160.382812 206.738281 " fill-opacity="1" fill-rule="nonzero"/></g><g clip-path="url(#09c30b81a2)"><path fill="#efdccc" d="M 221.851562 189.554688 L 199.238281 189.554688 C 192.925781 189.554688 188.402344 183.242188 191.117188 176.910156 L 220.945312 108.207031 L 202.875 108.207031 L 167.621094 189.554688 L 160.382812 206.738281 C 162.191406 206.738281 164.003906 207.644531 164.90625 207.644531 L 228.183594 207.644531 L 264.34375 234.757812 L 264.34375 216.6875 L 232.703125 193.171875 C 229.992188 190.457031 226.375 189.554688 221.851562 189.554688 " fill-opacity="1" fill-rule="nonzero"/></g><g clip-path="url(#0c1393c891)"><path stroke-linecap="round" transform="matrix(0.472538, 0, 0, -0.472538, 83.541321, 234.760869)" fill="none" stroke-linejoin="round" d="M 277.386802 325.203373 L 153.049969 38.247421 " stroke="#1a4363" stroke-width="10" stroke-opacity="1" stroke-miterlimit="10"/></g><path fill="#633d1a" d="M 246.253906 185.03125 C 243.539062 185.03125 241.730469 183.242188 241.730469 180.527344 L 241.730469 144.367188 C 241.730469 141.652344 239.921875 139.84375 237.226562 139.84375 L 219.136719 139.84375 C 216.425781 139.84375 214.617188 141.652344 214.617188 144.367188 L 214.617188 180.527344 C 214.617188 183.242188 212.804688 185.03125 210.09375 185.03125 C 207.398438 185.03125 205.589844 183.242188 205.589844 180.527344 L 205.589844 144.367188 C 205.589844 137.132812 211.902344 130.800781 219.136719 130.800781 L 237.226562 130.800781 C 244.445312 130.800781 250.777344 137.132812 250.777344 144.367188 L 250.777344 180.527344 C 250.777344 183.242188 248.964844 185.03125 246.253906 185.03125 " fill-opacity="1" fill-rule="nonzero"/><path fill="#633d1a" d="M 164.90625 121.753906 L 119.703125 121.753906 C 116.988281 121.753906 115.179688 119.945312 115.179688 117.25 C 115.179688 114.539062 116.988281 112.730469 119.703125 112.730469 L 164.90625 112.730469 C 167.621094 112.730469 169.410156 114.539062 169.410156 117.25 C 169.410156 119.945312 167.621094 121.753906 164.90625 121.753906 Z M 241.730469 166.960938 L 214.617188 166.960938 C 211.902344 166.960938 210.09375 165.152344 210.09375 162.4375 C 210.09375 159.726562 211.902344 157.914062 214.617188 157.914062 L 241.730469 157.914062 C 244.445312 157.914062 246.253906 159.726562 246.253906 162.4375 C 246.253906 165.152344 244.445312 166.960938 241.730469 166.960938 " fill-opacity="1" fill-rule="nonzero"/><path fill="#633d1a" d="M 164.003906 176.003906 C 163.097656 176.003906 162.191406 176.003906 162.191406 175.101562 C 140.484375 164.246094 126.03125 141.652344 125.128906 118.15625 C 125.128906 115.441406 126.9375 113.632812 129.652344 113.632812 C 132.363281 113.632812 134.171875 115.441406 134.171875 118.15625 C 135.078125 138.941406 147.722656 157.914062 166.714844 167.863281 C 168.507812 168.769531 169.410156 171.484375 168.507812 174.195312 C 166.714844 175.101562 164.90625 176.003906 164.003906 176.003906 " fill-opacity="1" fill-rule="nonzero"/><path fill="#633d1a" d="M 142.292969 121.753906 C 139.582031 121.753906 137.773438 119.945312 137.773438 117.25 L 137.773438 108.207031 C 137.773438 105.492188 139.582031 103.683594 142.292969 103.683594 C 145.007812 103.683594 146.816406 105.492188 146.816406 108.207031 L 146.816406 117.25 C 146.816406 119.945312 145.007812 121.753906 142.292969 121.753906 Z M 128.746094 168.769531 C 126.9375 168.769531 126.03125 167.863281 125.128906 166.960938 C 123.320312 165.152344 124.222656 162.4375 126.03125 160.628906 C 140.484375 150.699219 149.53125 135.324219 150.433594 117.25 C 150.433594 114.539062 152.242188 112.730469 154.957031 112.730469 C 157.671875 112.730469 159.480469 115.441406 159.480469 117.25 C 158.574219 138.035156 147.722656 157.011719 130.554688 167.863281 C 130.554688 168.769531 129.652344 168.769531 128.746094 168.769531 " fill-opacity="1" fill-rule="nonzero"/><g fill="#db9453" fill-opacity="1"><g transform="translate(85.239074, 288.433941)"><g><path d="M 2 -1.015625 L 4.890625 -1.015625 L 4.890625 0 L 0.875 0 L 0.875 -6.6875 L 2 -6.6875 Z M 2 -1.015625 "/></g></g></g><g fill="#db9453" fill-opacity="1"><g transform="translate(91.995751, 288.433941)"><g><path d="M 5.1875 -1.515625 L 1.828125 -1.515625 L 1.1875 0 L 0.015625 0 L 2.953125 -6.6875 L 4.109375 -6.6875 L 7.03125 0 L 5.828125 0 Z M 4.765625 -2.515625 L 3.5 -5.484375 L 2.25 -2.515625 Z M 4.765625 -2.515625 "/></g></g></g><g fill="#db9453" fill-opacity="1"><g transform="translate(100.699047, 288.433941)"><g><path d="M 6.671875 0 L 5.5625 0 L 2 -4.796875 L 2 0 L 0.875 0 L 0.875 -6.6875 L 1.984375 -6.6875 L 5.5625 -1.875 L 5.5625 -6.6875 L 6.671875 -6.6875 Z M 6.671875 0 "/></g></g></g><g fill="#db9453" fill-opacity="1"><g transform="translate(109.917638, 288.433941)"><g><path d="M 5.453125 -3.28125 L 6.4375 -3.28125 L 6.4375 -0.828125 C 6.09375 -0.554688 5.6875 -0.34375 5.21875 -0.1875 C 4.75 -0.03125 4.289062 0.046875 3.84375 0.046875 C 2.851562 0.046875 2.019531 -0.273438 1.34375 -0.921875 C 0.664062 -1.578125 0.328125 -2.378906 0.328125 -3.328125 C 0.328125 -4.285156 0.671875 -5.085938 1.359375 -5.734375 C 2.046875 -6.390625 2.894531 -6.71875 3.90625 -6.71875 C 4.375 -6.71875 4.832031 -6.628906 5.28125 -6.453125 C 5.738281 -6.285156 6.132812 -6.0625 6.46875 -5.78125 L 5.828125 -4.9375 C 5.285156 -5.445312 4.644531 -5.703125 3.90625 -5.703125 C 3.226562 -5.703125 2.648438 -5.472656 2.171875 -5.015625 C 1.703125 -4.554688 1.46875 -4 1.46875 -3.34375 C 1.46875 -2.675781 1.703125 -2.113281 2.171875 -1.65625 C 2.648438 -1.195312 3.234375 -0.96875 3.921875 -0.96875 C 4.429688 -0.96875 4.941406 -1.117188 5.453125 -1.421875 Z M 5.453125 -3.28125 "/></g></g></g><g fill="#db9453" fill-opacity="1"><g transform="translate(118.7259, 288.433941)"><g><path d="M 6.5625 -6.6875 L 6.5625 -2.765625 C 6.5625 -1.890625 6.300781 -1.203125 5.78125 -0.703125 C 5.269531 -0.203125 4.5625 0.046875 3.65625 0.046875 C 2.75 0.046875 2.035156 -0.203125 1.515625 -0.703125 C 1.003906 -1.203125 0.75 -1.890625 0.75 -2.765625 L 0.75 -6.6875 L 1.875 -6.6875 L 1.875 -2.765625 C 1.875 -2.203125 2.03125 -1.757812 2.34375 -1.4375 C 2.664062 -1.125 3.109375 -0.96875 3.671875 -0.96875 C 4.210938 -0.96875 4.640625 -1.125 4.953125 -1.4375 C 5.273438 -1.757812 5.4375 -2.203125 5.4375 -2.765625 L 5.4375 -6.6875 Z M 6.5625 -6.6875 "/></g></g></g><g fill="#db9453" fill-opacity="1"><g transform="translate(127.6773, 288.433941)"><g><path d="M 5.1875 -1.515625 L 1.828125 -1.515625 L 1.1875 0 L 0.015625 0 L 2.953125 -6.6875 L 4.109375 -6.6875 L 7.03125 0 L 5.828125 0 Z M 4.765625 -2.515625 L 3.5 -5.484375 L 2.25 -2.515625 Z M 4.765625 -2.515625 "/></g></g></g><g fill="#db9453" fill-opacity="1"><g transform="translate(136.380598, 288.433941)"><g><path d="M 5.453125 -3.28125 L 6.4375 -3.28125 L 6.4375 -0.828125 C 6.09375 -0.554688 5.6875 -0.34375 5.21875 -0.1875 C 4.75 -0.03125 4.289062 0.046875 3.84375 0.046875 C 2.851562 0.046875 2.019531 -0.273438 1.34375 -0.921875 C 0.664062 -1.578125 0.328125 -2.378906 0.328125 -3.328125 C 0.328125 -4.285156 0.671875 -5.085938 1.359375 -5.734375 C 2.046875 -6.390625 2.894531 -6.71875 3.90625 -6.71875 C 4.375 -6.71875 4.832031 -6.628906 5.28125 -6.453125 C 5.738281 -6.285156 6.132812 -6.0625 6.46875 -5.78125 L 5.828125 -4.9375 C 5.285156 -5.445312 4.644531 -5.703125 3.90625 -5.703125 C 3.226562 -5.703125 2.648438 -5.472656 2.171875 -5.015625 C 1.703125 -4.554688 1.46875 -4 1.46875 -3.34375 C 1.46875 -2.675781 1.703125 -2.113281 2.171875 -1.65625 C 2.648438 -1.195312 3.234375 -0.96875 3.921875 -0.96875 C 4.429688 -0.96875 4.941406 -1.117188 5.453125 -1.421875 Z M 5.453125 -3.28125 "/></g></g></g><g fill="#db9453" fill-opacity="1"><g transform="translate(145.18886, 288.433941)"><g><path d="M 5.65625 -5.671875 L 2 -5.671875 L 2 -3.859375 L 5.265625 -3.859375 L 5.265625 -2.859375 L 2 -2.859375 L 2 -1.015625 L 5.765625 -1.015625 L 5.765625 0 L 0.875 0 L 0.875 -6.6875 L 5.65625 -6.6875 Z M 5.65625 -5.671875 "/></g></g></g><g fill="#db9453" fill-opacity="1"><g transform="translate(153.109696, 288.433941)"><g/></g></g><g fill="#db9453" fill-opacity="1"><g transform="translate(157.232695, 288.433941)"><g><path d="M 2 -1.015625 L 4.890625 -1.015625 L 4.890625 0 L 0.875 0 L 0.875 -6.6875 L 2 -6.6875 Z M 2 -1.015625 "/></g></g></g><g fill="#db9453" fill-opacity="1"><g transform="translate(163.989372, 288.433941)"><g><path d="M 5.65625 -5.671875 L 2 -5.671875 L 2 -3.859375 L 5.265625 -3.859375 L 5.265625 -2.859375 L 2 -2.859375 L 2 -1.015625 L 5.765625 -1.015625 L 5.765625 0 L 0.875 0 L 0.875 -6.6875 L 5.65625 -6.6875 Z M 5.65625 -5.671875 "/></g></g></g><g fill="#db9453" fill-opacity="1"><g transform="translate(171.910207, 288.433941)"><g><path d="M 5.1875 -1.515625 L 1.828125 -1.515625 L 1.1875 0 L 0.015625 0 L 2.953125 -6.6875 L 4.109375 -6.6875 L 7.03125 0 L 5.828125 0 Z M 4.765625 -2.515625 L 3.5 -5.484375 L 2.25 -2.515625 Z M 4.765625 -2.515625 "/></g></g></g><g fill="#db9453" fill-opacity="1"><g transform="translate(180.613502, 288.433941)"><g><path d="M 5.109375 0 L 3.890625 -2.03125 C 3.828125 -2.019531 3.726562 -2.015625 3.59375 -2.015625 L 2 -2.015625 L 2 0 L 0.875 0 L 0.875 -6.6875 L 3.59375 -6.6875 C 4.445312 -6.6875 5.109375 -6.484375 5.578125 -6.078125 C 6.046875 -5.679688 6.28125 -5.125 6.28125 -4.40625 C 6.28125 -3.863281 6.160156 -3.40625 5.921875 -3.03125 C 5.679688 -2.664062 5.335938 -2.398438 4.890625 -2.234375 L 6.390625 0 Z M 2 -3.03125 L 3.59375 -3.03125 C 4.675781 -3.03125 5.21875 -3.476562 5.21875 -4.375 C 5.21875 -5.238281 4.675781 -5.671875 3.59375 -5.671875 L 2 -5.671875 Z M 2 -3.03125 "/></g></g></g><g fill="#db9453" fill-opacity="1"><g transform="translate(189.173678, 288.433941)"><g><path d="M 6.671875 0 L 5.5625 0 L 2 -4.796875 L 2 0 L 0.875 0 L 0.875 -6.6875 L 1.984375 -6.6875 L 5.5625 -1.875 L 5.5625 -6.6875 L 6.671875 -6.6875 Z M 6.671875 0 "/></g></g></g><g fill="#db9453" fill-opacity="1"><g transform="translate(198.392267, 288.433941)"><g><path d="M 2 0 L 0.875 0 L 0.875 -6.6875 L 2 -6.6875 Z M 2 0 "/></g></g></g><g fill="#db9453" fill-opacity="1"><g transform="translate(202.935124, 288.433941)"><g><path d="M 6.671875 0 L 5.5625 0 L 2 -4.796875 L 2 0 L 0.875 0 L 0.875 -6.6875 L 1.984375 -6.6875 L 5.5625 -1.875 L 5.5625 -6.6875 L 6.671875 -6.6875 Z M 6.671875 0 "/></g></g></g><g fill="#db9453" fill-opacity="1"><g transform="translate(212.153713, 288.433941)"><g><path d="M 5.453125 -3.28125 L 6.4375 -3.28125 L 6.4375 -0.828125 C 6.09375 -0.554688 5.6875 -0.34375 5.21875 -0.1875 C 4.75 -0.03125 4.289062 0.046875 3.84375 0.046875 C 2.851562 0.046875 2.019531 -0.273438 1.34375 -0.921875 C 0.664062 -1.578125 0.328125 -2.378906 0.328125 -3.328125 C 0.328125 -4.285156 0.671875 -5.085938 1.359375 -5.734375 C 2.046875 -6.390625 2.894531 -6.71875 3.90625 -6.71875 C 4.375 -6.71875 4.832031 -6.628906 5.28125 -6.453125 C 5.738281 -6.285156 6.132812 -6.0625 6.46875 -5.78125 L 5.828125 -4.9375 C 5.285156 -5.445312 4.644531 -5.703125 3.90625 -5.703125 C 3.226562 -5.703125 2.648438 -5.472656 2.171875 -5.015625 C 1.703125 -4.554688 1.46875 -4 1.46875 -3.34375 C 1.46875 -2.675781 1.703125 -2.113281 2.171875 -1.65625 C 2.648438 -1.195312 3.234375 -0.96875 3.921875 -0.96875 C 4.429688 -0.96875 4.941406 -1.117188 5.453125 -1.421875 Z M 5.453125 -3.28125 "/></g></g></g><g fill="#db9453" fill-opacity="1"><g transform="translate(220.961975, 288.433941)"><g/></g></g><g fill="#db9453" fill-opacity="1"><g transform="translate(225.084974, 288.433941)"><g><path d="M 0.875 -6.6875 L 3.546875 -6.6875 C 4.378906 -6.6875 5.023438 -6.484375 5.484375 -6.078125 C 5.953125 -5.679688 6.1875 -5.125 6.1875 -4.40625 C 6.1875 -3.644531 5.953125 -3.054688 5.484375 -2.640625 C 5.023438 -2.222656 4.378906 -2.015625 3.546875 -2.015625 L 2 -2.015625 L 2 0 L 0.875 0 Z M 2 -5.671875 L 2 -3.03125 L 3.5 -3.03125 C 4.570312 -3.03125 5.109375 -3.476562 5.109375 -4.375 C 5.109375 -5.238281 4.570312 -5.671875 3.5 -5.671875 Z M 2 -5.671875 "/></g></g></g><g fill="#db9453" fill-opacity="1"><g transform="translate(233.16802, 288.433941)"><g><path d="M 2 -1.015625 L 4.890625 -1.015625 L 4.890625 0 L 0.875 0 L 0.875 -6.6875 L 2 -6.6875 Z M 2 -1.015625 "/></g></g></g><g fill="#db9453" fill-opacity="1"><g transform="translate(239.924697, 288.433941)"><g><path d="M 5.1875 -1.515625 L 1.828125 -1.515625 L 1.1875 0 L 0.015625 0 L 2.953125 -6.6875 L 4.109375 -6.6875 L 7.03125 0 L 5.828125 0 Z M 4.765625 -2.515625 L 3.5 -5.484375 L 2.25 -2.515625 Z M 4.765625 -2.515625 "/></g></g></g><g fill="#db9453" fill-opacity="1"><g transform="translate(248.627992, 288.433941)"><g><path d="M 5.4375 -5.671875 L 3.328125 -5.671875 L 3.328125 0 L 2.203125 0 L 2.203125 -5.671875 L 0.078125 -5.671875 L 0.078125 -6.6875 L 5.4375 -6.6875 Z M 5.4375 -5.671875 "/></g></g></g><g fill="#db9453" fill-opacity="1"><g transform="translate(255.814068, 288.433941)"><g><path d="M 5.359375 -5.671875 L 2 -5.671875 L 2 -3.75 L 5.046875 -3.75 L 5.046875 -2.734375 L 2 -2.734375 L 2 0 L 0.875 0 L 0.875 -6.6875 L 5.359375 -6.6875 Z M 5.359375 -5.671875 "/></g></g></g><g fill="#db9453" fill-opacity="1"><g transform="translate(262.961975, 288.433941)"><g><path d="M 1.34375 -5.734375 C 2.03125 -6.390625 2.867188 -6.71875 3.859375 -6.71875 C 4.859375 -6.71875 5.695312 -6.390625 6.375 -5.734375 C 7.0625 -5.085938 7.40625 -4.285156 7.40625 -3.328125 C 7.40625 -2.378906 7.0625 -1.578125 6.375 -0.921875 C 5.695312 -0.273438 4.859375 0.046875 3.859375 0.046875 C 2.867188 0.046875 2.03125 -0.273438 1.34375 -0.921875 C 0.664062 -1.578125 0.328125 -2.378906 0.328125 -3.328125 C 0.328125 -4.285156 0.664062 -5.085938 1.34375 -5.734375 Z M 3.875 -5.703125 C 3.21875 -5.703125 2.648438 -5.472656 2.171875 -5.015625 C 1.703125 -4.554688 1.46875 -3.992188 1.46875 -3.328125 C 1.46875 -2.671875 1.703125 -2.113281 2.171875 -1.65625 C 2.648438 -1.195312 3.21875 -0.96875 3.875 -0.96875 C 4.53125 -0.96875 5.085938 -1.195312 5.546875 -1.65625 C 6.015625 -2.113281 6.25 -2.671875 6.25 -3.328125 C 6.25 -3.992188 6.015625 -4.554688 5.546875 -5.015625 C 5.085938 -5.472656 4.53125 -5.703125 3.875 -5.703125 Z M 3.875 -5.703125 "/></g></g></g><g fill="#db9453" fill-opacity="1"><g transform="translate(272.352317, 288.433941)"><g><path d="M 5.109375 0 L 3.890625 -2.03125 C 3.828125 -2.019531 3.726562 -2.015625 3.59375 -2.015625 L 2 -2.015625 L 2 0 L 0.875 0 L 0.875 -6.6875 L 3.59375 -6.6875 C 4.445312 -6.6875 5.109375 -6.484375 5.578125 -6.078125 C 6.046875 -5.679688 6.28125 -5.125 6.28125 -4.40625 C 6.28125 -3.863281 6.160156 -3.40625 5.921875 -3.03125 C 5.679688 -2.664062 5.335938 -2.398438 4.890625 -2.234375 L 6.390625 0 Z M 2 -3.03125 L 3.59375 -3.03125 C 4.675781 -3.03125 5.21875 -3.476562 5.21875 -4.375 C 5.21875 -5.238281 4.675781 -5.671875 3.59375 -5.671875 L 2 -5.671875 Z M 2 -3.03125 "/></g></g></g><g fill="#db9453" fill-opacity="1"><g transform="translate(280.912486, 288.433941)"><g><path d="M 7.9375 0 L 6.90625 0 L 6.890625 -5 L 4.78125 -0.703125 L 4.046875 -0.703125 L 1.9375 -5 L 1.9375 0 L 0.875 0 L 0.875 -6.6875 L 2.21875 -6.6875 L 4.421875 -2.25 L 6.609375 -6.6875 L 7.9375 -6.6875 Z M 7.9375 0 "/></g></g></g><g fill="#633d1a" fill-opacity="1"><g transform="translate(123.402784, 262.349354)"><g><path d="M 4.359375 0 C 3.023438 0 2.359375 -0.675781 2.359375 -2.03125 L 2.359375 -19.71875 C 2.359375 -21.050781 3.015625 -21.71875 4.328125 -21.71875 C 5.628906 -21.71875 6.28125 -21.050781 6.28125 -19.71875 L 6.28125 -3.34375 L 15.1875 -3.34375 C 16.332031 -3.34375 16.90625 -2.789062 16.90625 -1.6875 C 16.90625 -0.5625 16.332031 0 15.1875 0 Z M 4.359375 0 "/></g></g></g><g fill="#633d1a" fill-opacity="1"><g transform="translate(144.128399, 262.349354)"><g><path d="M 4.328125 0.25 C 3.015625 0.25 2.359375 -0.425781 2.359375 -1.78125 L 2.359375 -19.84375 C 2.359375 -21.195312 3.015625 -21.875 4.328125 -21.875 C 5.628906 -21.875 6.28125 -21.195312 6.28125 -19.84375 L 6.28125 -1.78125 C 6.28125 -0.425781 5.628906 0.25 4.328125 0.25 Z M 4.328125 0.25 "/></g></g></g><g fill="#633d1a" fill-opacity="1"><g transform="translate(156.270271, 262.349354)"><g><path d="M 4.203125 0.25 C 2.972656 0.25 2.359375 -0.382812 2.359375 -1.65625 L 2.359375 -19.90625 C 2.359375 -20.539062 2.515625 -21.023438 2.828125 -21.359375 C 3.148438 -21.703125 3.566406 -21.875 4.078125 -21.875 C 4.546875 -21.875 4.894531 -21.785156 5.125 -21.609375 C 5.363281 -21.429688 5.648438 -21.140625 5.984375 -20.734375 L 16.9375 -6.53125 L 16.9375 -20 C 16.9375 -21.25 17.546875 -21.875 18.765625 -21.875 C 19.972656 -21.875 20.578125 -21.25 20.578125 -20 L 20.578125 -1.59375 C 20.578125 -1.019531 20.429688 -0.566406 20.140625 -0.234375 C 19.859375 0.0859375 19.472656 0.25 18.984375 0.25 C 18.515625 0.25 18.140625 0.15625 17.859375 -0.03125 C 17.585938 -0.21875 17.289062 -0.515625 16.96875 -0.921875 L 6.015625 -15.15625 L 6.015625 -1.65625 C 6.015625 -0.382812 5.410156 0.25 4.203125 0.25 Z M 4.203125 0.25 "/></g></g></g><g fill="#633d1a" fill-opacity="1"><g transform="translate(182.697939, 262.349354)"><g><path d="M 12.765625 0.3125 C 10.367188 0.3125 8.347656 -0.132812 6.703125 -1.03125 C 5.054688 -1.9375 3.800781 -3.21875 2.9375 -4.875 C 2.082031 -6.53125 1.65625 -8.492188 1.65625 -10.765625 C 1.65625 -13.054688 2.09375 -15.035156 2.96875 -16.703125 C 3.851562 -18.367188 5.125 -19.65625 6.78125 -20.5625 C 8.4375 -21.476562 10.421875 -21.9375 12.734375 -21.9375 C 13.878906 -21.9375 15.023438 -21.796875 16.171875 -21.515625 C 17.328125 -21.242188 18.421875 -20.78125 19.453125 -20.125 C 19.898438 -19.851562 20.15625 -19.5 20.21875 -19.0625 C 20.289062 -18.625 20.222656 -18.207031 20.015625 -17.8125 C 19.816406 -17.425781 19.515625 -17.15625 19.109375 -17 C 18.703125 -16.851562 18.253906 -16.921875 17.765625 -17.203125 C 16.984375 -17.648438 16.191406 -17.976562 15.390625 -18.1875 C 14.597656 -18.394531 13.710938 -18.5 12.734375 -18.5 C 10.441406 -18.5 8.707031 -17.832031 7.53125 -16.5 C 6.351562 -15.164062 5.765625 -13.253906 5.765625 -10.765625 C 5.765625 -8.253906 6.367188 -6.34375 7.578125 -5.03125 C 8.785156 -3.71875 10.570312 -3.0625 12.9375 -3.0625 C 13.613281 -3.0625 14.304688 -3.117188 15.015625 -3.234375 C 15.722656 -3.347656 16.421875 -3.515625 17.109375 -3.734375 L 17.109375 -8.765625 L 13.734375 -8.765625 C 12.671875 -8.765625 12.140625 -9.257812 12.140625 -10.25 C 12.140625 -11.207031 12.671875 -11.6875 13.734375 -11.6875 L 18.796875 -11.6875 C 19.859375 -11.6875 20.390625 -11.15625 20.390625 -10.09375 L 20.390625 -2.640625 C 20.390625 -1.703125 20.023438 -1.097656 19.296875 -0.828125 C 18.390625 -0.503906 17.351562 -0.234375 16.1875 -0.015625 C 15.03125 0.203125 13.890625 0.3125 12.765625 0.3125 Z M 12.765625 0.3125 "/></g></g></g><g fill="#633d1a" fill-opacity="1"><g transform="translate(208.757736, 262.349354)"><g><path d="M 4.453125 0 C 3.054688 0 2.359375 -0.691406 2.359375 -2.078125 L 2.359375 -19.53125 C 2.359375 -20.925781 3.054688 -21.625 4.453125 -21.625 L 15.390625 -21.625 C 16.460938 -21.625 17 -21.113281 17 -20.09375 C 17 -19.03125 16.460938 -18.5 15.390625 -18.5 L 6.140625 -18.5 L 6.140625 -12.546875 L 14.71875 -12.546875 C 15.78125 -12.546875 16.3125 -12.023438 16.3125 -10.984375 C 16.3125 -9.941406 15.78125 -9.421875 14.71875 -9.421875 L 6.140625 -9.421875 L 6.140625 -3.125 L 15.390625 -3.125 C 16.460938 -3.125 17 -2.601562 17 -1.5625 C 17 -0.519531 16.460938 0 15.390625 0 Z M 4.453125 0 "/></g></g></g><g fill="#633d1a" fill-opacity="1"><g transform="translate(230.556315, 262.349354)"><g><path d="M 4.328125 0.25 C 3.015625 0.25 2.359375 -0.425781 2.359375 -1.78125 L 2.359375 -19.625 C 2.359375 -20.957031 3.023438 -21.625 4.359375 -21.625 L 11.75 -21.625 C 14.125 -21.625 15.953125 -21.054688 17.234375 -19.921875 C 18.523438 -18.785156 19.171875 -17.195312 19.171875 -15.15625 C 19.171875 -13.539062 18.75 -12.203125 17.90625 -11.140625 C 17.070312 -10.085938 15.867188 -9.378906 14.296875 -9.015625 C 15.335938 -8.691406 16.195312 -7.90625 16.875 -6.65625 L 19.171875 -2.390625 C 19.515625 -1.734375 19.578125 -1.128906 19.359375 -0.578125 C 19.148438 -0.0234375 18.628906 0.25 17.796875 0.25 C 17.242188 0.25 16.789062 0.132812 16.4375 -0.09375 C 16.09375 -0.332031 15.785156 -0.703125 15.515625 -1.203125 L 12.421875 -6.90625 C 12.054688 -7.59375 11.617188 -8.054688 11.109375 -8.296875 C 10.609375 -8.535156 9.972656 -8.65625 9.203125 -8.65625 L 6.28125 -8.65625 L 6.28125 -1.78125 C 6.28125 -0.425781 5.628906 0.25 4.328125 0.25 Z M 6.28125 -11.5625 L 11.078125 -11.5625 C 13.929688 -11.5625 15.359375 -12.726562 15.359375 -15.0625 C 15.359375 -17.375 13.929688 -18.53125 11.078125 -18.53125 L 6.28125 -18.53125 Z M 6.28125 -11.5625 "/></g></g></g></svg>