<svg xmlns="http://www.w3.org/2000/svg" xmlns:xlink="http://www.w3.org/1999/xlink" width="500" zoomAndPan="magnify" viewBox="0 0 375 374.999991" height="500" preserveAspectRatio="xMidYMid meet" version="1.0"><defs><clipPath id="df530c6100"><path d="M 143 109 L 356.523438 109 L 356.523438 314.589844 L 143 314.589844 Z M 143 109 " clip-rule="nonzero"/></clipPath><clipPath id="996d7b53b9"><path d="M 143 109 L 313 109 L 313 314.589844 L 143 314.589844 Z M 143 109 " clip-rule="nonzero"/></clipPath></defs><path fill="#db9453" d="M 224.230469 79.628906 L 47.851562 79.628906 C 31.707031 79.628906 18.46875 92.863281 18.46875 109.039062 L 18.46875 211.917969 C 18.46875 228.097656 31.707031 241.300781 47.851562 241.300781 L 62.558594 241.300781 L 62.558594 285.417969 L 121.351562 241.300781 L 150.761719 241.300781 " fill-opacity="1" fill-rule="nonzero"/><path fill="#db9453" d="M 224.230469 79.628906 L 47.851562 79.628906 C 31.707031 79.628906 18.46875 92.863281 18.46875 109.039062 L 18.46875 211.917969 C 18.46875 228.097656 31.707031 241.300781 47.851562 241.300781 L 62.558594 241.300781 L 62.558594 285.417969 L 121.351562 241.300781 L 150.761719 241.300781 " fill-opacity="1" fill-rule="nonzero"/><path fill="#ba7a3e" d="M 152.234375 241.300781 L 155.175781 241.300781 L 212.496094 109.039062 L 224.230469 79.628906 L 190.4375 79.628906 L 133.117188 204.566406 C 131.644531 208.980469 127.234375 211.917969 122.820312 211.917969 C 118.410156 213.390625 115.46875 214.859375 112.527344 216.332031 L 62.558594 256.007812 L 62.558594 285.417969 L 121.351562 241.300781 L 152.234375 241.300781 " fill-opacity="1" fill-rule="nonzero"/><g clip-path="url(#df530c6100)"><path fill="#ece9e7" d="M 212.496094 109.039062 L 327.113281 109.039062 C 343.289062 109.039062 356.523438 122.273438 356.523438 138.421875 L 356.523438 241.300781 C 356.523438 257.476562 343.289062 270.714844 327.113281 270.714844 L 312.4375 270.714844 L 312.4375 314.800781 L 253.644531 270.714844 L 150.761719 270.714844 C 147.820312 270.714844 144.878906 270.714844 143.410156 269.242188 " fill-opacity="1" fill-rule="nonzero"/></g><g clip-path="url(#996d7b53b9)"><path fill="#efdccc" d="M 243.347656 241.300781 L 206.585938 241.300781 C 196.320312 241.300781 188.96875 231.039062 193.378906 220.742188 L 241.878906 109.039062 L 212.496094 109.039062 L 155.175781 241.300781 L 143.410156 269.242188 C 146.351562 269.242188 149.292969 270.714844 150.761719 270.714844 L 253.644531 270.714844 L 312.4375 314.800781 L 312.4375 285.417969 L 260.996094 247.183594 C 256.585938 242.773438 250.703125 241.300781 243.347656 241.300781 " fill-opacity="1" fill-rule="nonzero"/></g><path stroke-linecap="round" transform="matrix(0.768304, 0, 0, -0.768304, 18.4699, 314.804041)" fill="none" stroke-linejoin="round" d="M 277.385093 325.198048 L 153.04464 38.247982 " stroke="#1a4363" stroke-width="10" stroke-opacity="1" stroke-miterlimit="10"/><path fill="#633d1a" d="M 283.023438 233.949219 C 278.613281 233.949219 275.671875 231.039062 275.671875 226.625 L 275.671875 167.832031 C 275.671875 163.421875 272.730469 160.480469 268.347656 160.480469 L 238.9375 160.480469 C 234.523438 160.480469 231.585938 163.421875 231.585938 167.832031 L 231.585938 226.625 C 231.585938 231.039062 228.644531 233.949219 224.230469 233.949219 C 219.847656 233.949219 216.910156 231.039062 216.910156 226.625 L 216.910156 167.832031 C 216.910156 156.066406 227.171875 145.773438 238.9375 145.773438 L 268.347656 145.773438 C 280.082031 145.773438 290.378906 156.066406 290.378906 167.832031 L 290.378906 226.625 C 290.378906 231.039062 287.4375 233.949219 283.023438 233.949219 " fill-opacity="1" fill-rule="nonzero"/><path fill="#633d1a" d="M 150.761719 131.066406 L 77.261719 131.066406 C 72.851562 131.066406 69.910156 128.125 69.910156 123.746094 C 69.910156 119.332031 72.851562 116.390625 77.261719 116.390625 L 150.761719 116.390625 C 155.175781 116.390625 158.085938 119.332031 158.085938 123.746094 C 158.085938 128.125 155.175781 131.066406 150.761719 131.066406 Z M 275.671875 204.566406 L 231.585938 204.566406 C 227.171875 204.566406 224.230469 201.625 224.230469 197.214844 C 224.230469 192.800781 227.171875 189.859375 231.585938 189.859375 L 275.671875 189.859375 C 280.082031 189.859375 283.023438 192.800781 283.023438 197.214844 C 283.023438 201.625 280.082031 204.566406 275.671875 204.566406 " fill-opacity="1" fill-rule="nonzero"/><path fill="#633d1a" d="M 149.292969 219.273438 C 147.820312 219.273438 146.351562 219.273438 146.351562 217.800781 C 111.054688 200.15625 87.558594 163.421875 86.085938 125.214844 C 86.085938 120.804688 89.027344 117.863281 93.441406 117.863281 C 97.851562 117.863281 100.792969 120.804688 100.792969 125.214844 C 102.261719 159.007812 122.820312 189.859375 153.703125 206.039062 C 156.613281 207.507812 158.085938 211.917969 156.613281 216.332031 C 153.703125 217.800781 150.761719 219.273438 149.292969 219.273438 " fill-opacity="1" fill-rule="nonzero"/><path fill="#633d1a" d="M 113.996094 131.066406 C 109.585938 131.066406 106.644531 128.125 106.644531 123.746094 L 106.644531 109.039062 C 106.644531 104.628906 109.585938 101.6875 113.996094 101.6875 C 118.410156 101.6875 121.351562 104.628906 121.351562 109.039062 L 121.351562 123.746094 C 121.351562 128.125 118.410156 131.066406 113.996094 131.066406 Z M 91.96875 207.507812 C 89.027344 207.507812 87.558594 206.039062 86.085938 204.566406 C 83.144531 201.625 84.617188 197.214844 87.558594 194.273438 C 111.054688 178.125 125.761719 153.125 127.234375 123.746094 C 127.234375 119.332031 130.175781 116.390625 134.585938 116.390625 C 138.996094 116.390625 141.9375 120.804688 141.9375 123.746094 C 140.46875 157.539062 122.820312 188.390625 94.910156 206.039062 C 94.910156 207.507812 93.441406 207.507812 91.96875 207.507812 " fill-opacity="1" fill-rule="nonzero"/></svg>